# File generated by ImageToStl.com - Free Image and 3D model conversion tools

o obj1
v 1.69572997 -1.28497577 0
v 1.69572997 1.71502423 0
v -1.30427003 -1.28497577 0
v -1.30427003 1.71502423 0
v -1.30427003 1.71502423 1.12
v -1.30427003 -1.28497577 1.12
v 1.69572997 1.71502423 1.12
v 1.69572997 -1.28497577 1.12
v -1.40427005 1.81502426 1.12
v -1.40427005 1.81502426 -0.08000001
v -1.40427005 -1.38497579 1.12
v -1.40427005 -1.38497579 -0.08000001
v 1.79572999 1.81502426 1.12
v 1.79572999 1.81502426 -0.08000001
v 1.79572999 -1.38497579 1.12
v 1.79572999 -1.38497579 -0.08000001
vn 0 -0 1
vn 1 0 0
vn 0 -1 0
vn -1 0 0
vn 0 1 0
vn 0 0 -1
f 1//1 2//1 3//1
f 2//1 4//1 3//1
f 5//2 6//2 4//2
f 6//2 3//2 4//2
f 2//3 7//3 4//3
f 7//3 5//3 4//3
f 1//4 8//4 2//4
f 8//4 7//4 2//4
f 9//4 10//4 11//4
f 10//4 12//4 11//4
f 13//5 14//5 9//5
f 14//5 10//5 9//5
f 6//5 8//5 3//5
f 8//5 1//5 3//5
f 11//3 12//3 15//3
f 12//3 16//3 15//3
f 5//1 9//1 6//1
f 9//1 11//1 6//1
f 6//1 11//1 8//1
f 11//1 15//1 8//1
f 8//1 15//1 7//1
f 15//1 13//1 7//1
f 7//1 13//1 5//1
f 13//1 9//1 5//1
f 15//2 16//2 13//2
f 16//2 14//2 13//2
f 16//6 12//6 14//6
f 12//6 10//6 14//6
# Vertices: 16, normals: 6, texture coordinates: 0, faces: 28

